<?xml version="1.0" encoding="utf-8"?>
<!-- Generator: Adobe Illustrator 19.0.0, SVG Export Plug-In . SVG Version: 6.00 Build 0)  -->
<svg version="1.1" id="Layer_1" xmlns="http://www.w3.org/2000/svg" xmlns:xlink="http://www.w3.org/1999/xlink" x="0px" y="0px"
	 viewBox="0 0 612 612" style="enable-background:new 0 0 612 612;" xml:space="preserve">
<style type="text/css">
	.st0{fill:#0F7C66;}
</style>
<g id="XMLID_6_">
	<path id="XMLID_7_" class="st0" d="M29.1,372.3V240.6h94V270H65.1v28.3H118v28.5H65.1v45.6H29.1z"/>
	<path id="XMLID_9_" class="st0" d="M135.7,372.3V240.6h94V270h-58.1v28.3h52.9v28.5h-52.9v45.6H135.7z"/>
	<path id="XMLID_11_" class="st0" d="M278.3,240.6v131.7h-36V240.6H278.3z M293.2,372.3h-36.1v-30.4h34.6c6.7,0,12.4-1.1,17-3.3
		c4.6-2.2,8.1-5.8,10.5-11c2.4-5.2,3.5-12.2,3.5-21.1c0-9-1.2-16-3.6-21.2c-2.4-5.2-6-8.8-10.8-11c-4.8-2.2-10.7-3.3-17.7-3.3h-34
		v-30.4h36.1c13.6,0,25.3,2.7,35.2,8s17.5,12.9,22.9,22.7c5.4,9.8,8.1,21.6,8.1,35.3c0,13.6-2.7,25.3-8,35.2
		c-5.4,9.8-12.9,17.4-22.8,22.7C318.3,369.7,306.6,372.3,293.2,372.3z"/>
	<path id="XMLID_16_" class="st0" d="M372.7,372.3V240.6h57.1c10,0,18.4,1.4,25.3,4.1c6.8,2.7,12,6.6,15.5,11.5
		c3.5,4.9,5.2,10.7,5.2,17.3c0,4.9-1.1,9.4-3.2,13.4c-2.1,4-5.1,7.4-8.9,10.1c-3.8,2.7-8.3,4.5-13.4,5.5v1.1
		c5.7,0.2,10.8,1.6,15.4,4.2c4.6,2.7,8.3,6.3,11,11c2.7,4.7,4.1,10.1,4.1,16.3c0,7.2-1.8,13.6-5.5,19.2c-3.7,5.6-9,10-15.9,13.3
		c-6.9,3.2-15.1,4.8-24.7,4.8H372.7z M408.4,293.6h15.3c3,0,5.7-0.5,8-1.5c2.3-1,4.1-2.4,5.4-4.2c1.3-1.9,1.9-4.1,1.9-6.8
		c0-3.9-1.4-7-4.2-9.2c-2.8-2.2-6.3-3.3-10.6-3.3h-15.7V293.6z M408.4,344h17.4c5.7,0,10-1.1,12.9-3.4c2.9-2.3,4.4-5.6,4.4-9.9
		c0-3-0.7-5.6-2.1-7.6c-1.4-2.1-3.3-3.7-5.8-4.8c-2.5-1.1-5.5-1.7-9-1.7h-17.9V344z"/>
</g>
<g id="XMLID_2_">
	<path id="XMLID_4_" class="st0" d="M561.7,338.6c-8.7,0-16.1-3-22-8.9c-6-5.9-9-13.2-9-22c0-8.6,3-15.9,9-21.8
		c6-5.9,13.3-8.9,22-8.9c8.6,0,15.9,3,21.9,8.9c6,5.9,9,13.2,9,21.8c0,8.7-3,16-9,22C577.6,335.7,570.3,338.6,561.7,338.6z"/>
</g>
</svg>
